<svg xmlns="http://www.w3.org/2000/svg" width="1300" height="980" viewBox="0 0 1300 980">
  <defs>
    <style>
      .title { font: 700 28px 'Microsoft YaHei', SimSun, serif; fill: #111; }
      .caption { font: 24px 'Microsoft YaHei', SimSun, serif; fill: #111; }
      .label { font: 22px 'Microsoft YaHei', SimSun, serif; fill: #111; }
      .text { font: 20px 'Microsoft YaHei', SimSun, serif; fill: #111; }
      .actor { stroke: #222; stroke-width: 2.8; fill: none; }
      .usecase { stroke: #222; stroke-width: 2.2; fill: #fff; }
      .line { stroke: #222; stroke-width: 2.2; fill: none; }
      .include { stroke: #222; stroke-width: 1.8; stroke-dasharray: 6 5; fill: none; }
    </style>
    <marker id="arrowSolid" markerWidth="10" markerHeight="10" refX="9" refY="5" orient="auto" markerUnits="strokeWidth">
      <path d="M0,0 L10,5 L0,10 z" fill="#222"/>
    </marker>
    <marker id="arrowDashed" markerWidth="10" markerHeight="10" refX="9" refY="5" orient="auto" markerUnits="strokeWidth">
      <path d="M0,0 L10,5 L0,10 z" fill="#222"/>
    </marker>
  </defs>

  <text x="650" y="48" text-anchor="middle" class="title">图2.1 用户用例图</text>

  <circle cx="140" cy="420" r="16" class="actor"/>
  <line x1="140" y1="436" x2="140" y2="512" class="actor"/>
  <line x1="108" y1="462" x2="172" y2="462" class="actor"/>
  <line x1="140" y1="512" x2="116" y2="562" class="actor"/>
  <line x1="140" y1="512" x2="164" y2="562" class="actor"/>
  <text x="140" y="602" text-anchor="middle" class="label">用户</text>

  <ellipse cx="420" cy="190" rx="110" ry="36" class="usecase"/>
  <text x="420" y="198" text-anchor="middle" class="text">注册 / 登录</text>

  <ellipse cx="420" cy="300" rx="110" ry="36" class="usecase"/>
  <text x="420" y="308" text-anchor="middle" class="text">首页浏览</text>

  <ellipse cx="420" cy="410" rx="110" ry="36" class="usecase"/>
  <text x="420" y="418" text-anchor="middle" class="text">商品信息</text>

  <ellipse cx="420" cy="520" rx="110" ry="36" class="usecase"/>
  <text x="420" y="528" text-anchor="middle" class="text">我的账户</text>

  <ellipse cx="420" cy="630" rx="110" ry="36" class="usecase"/>
  <text x="420" y="638" text-anchor="middle" class="text">购物结算</text>

  <ellipse cx="420" cy="740" rx="110" ry="36" class="usecase"/>
  <text x="420" y="748" text-anchor="middle" class="text">个人中心</text>

  <ellipse cx="900" cy="120" rx="120" ry="34" class="usecase"/>
  <text x="900" y="128" text-anchor="middle" class="text">商品详情</text>

  <ellipse cx="900" cy="210" rx="120" ry="34" class="usecase"/>
  <text x="900" y="218" text-anchor="middle" class="text">加入购物车</text>

  <ellipse cx="900" cy="300" rx="120" ry="34" class="usecase"/>
  <text x="900" y="308" text-anchor="middle" class="text">管理地址</text>

  <ellipse cx="900" cy="390" rx="120" ry="34" class="usecase"/>
  <text x="900" y="398" text-anchor="middle" class="text">领取优惠券</text>

  <ellipse cx="900" cy="480" rx="120" ry="34" class="usecase"/>
  <text x="900" y="488" text-anchor="middle" class="text">积分抵扣</text>

  <ellipse cx="900" cy="570" rx="120" ry="34" class="usecase"/>
  <text x="900" y="578" text-anchor="middle" class="text">模拟支付</text>

  <ellipse cx="900" cy="660" rx="120" ry="34" class="usecase"/>
  <text x="900" y="668" text-anchor="middle" class="text">查看订单</text>

  <ellipse cx="900" cy="750" rx="120" ry="34" class="usecase"/>
  <text x="900" y="758" text-anchor="middle" class="text">订单评价</text>

  <ellipse cx="900" cy="840" rx="120" ry="34" class="usecase"/>
  <text x="900" y="848" text-anchor="middle" class="text">参与拼团 / 秒杀</text>

  <line x1="156" y1="408" x2="312" y2="190" class="line" marker-end="url(#arrowSolid)"/>
  <line x1="166" y1="422" x2="310" y2="300" class="line" marker-end="url(#arrowSolid)"/>
  <line x1="172" y1="438" x2="310" y2="410" class="line" marker-end="url(#arrowSolid)"/>
  <line x1="172" y1="458" x2="310" y2="520" class="line" marker-end="url(#arrowSolid)"/>
  <line x1="166" y1="480" x2="310" y2="630" class="line" marker-end="url(#arrowSolid)"/>
  <line x1="156" y1="496" x2="312" y2="740" class="line" marker-end="url(#arrowSolid)"/>

  <line x1="530" y1="300" x2="780" y2="120" class="include" marker-end="url(#arrowDashed)"/>
  <text x="650" y="196" text-anchor="middle" class="text">&lt;&lt;包含&gt;&gt;</text>

  <line x1="530" y1="410" x2="780" y2="210" class="include" marker-end="url(#arrowDashed)"/>
  <text x="650" y="305" text-anchor="middle" class="text">&lt;&lt;包含&gt;&gt;</text>

  <line x1="530" y1="520" x2="780" y2="300" class="include" marker-end="url(#arrowDashed)"/>
  <text x="650" y="412" text-anchor="middle" class="text">&lt;&lt;包含&gt;&gt;</text>

  <line x1="530" y1="630" x2="780" y2="390" class="include" marker-end="url(#arrowDashed)"/>
  <text x="650" y="502" text-anchor="middle" class="text">&lt;&lt;包含&gt;&gt;</text>

  <line x1="530" y1="630" x2="780" y2="480" class="include" marker-end="url(#arrowDashed)"/>
  <text x="676" y="552" text-anchor="middle" class="text">&lt;&lt;包含&gt;&gt;</text>

  <line x1="530" y1="630" x2="780" y2="570" class="include" marker-end="url(#arrowDashed)"/>
  <text x="666" y="614" text-anchor="middle" class="text">&lt;&lt;包含&gt;&gt;</text>

  <line x1="530" y1="740" x2="780" y2="660" class="include" marker-end="url(#arrowDashed)"/>
  <text x="660" y="682" text-anchor="middle" class="text">&lt;&lt;包含&gt;&gt;</text>

  <line x1="530" y1="740" x2="780" y2="750" class="include" marker-end="url(#arrowDashed)"/>
  <text x="654" y="734" text-anchor="middle" class="text">&lt;&lt;包含&gt;&gt;</text>

  <line x1="530" y1="740" x2="780" y2="840" class="include" marker-end="url(#arrowDashed)"/>
  <text x="664" y="794" text-anchor="middle" class="text">&lt;&lt;包含&gt;&gt;</text>
</svg>
