<svg xmlns="http://www.w3.org/2000/svg" width="1300" height="980" viewBox="0 0 1300 980">
  <defs>
    <style>
      .title { font: 700 28px 'Microsoft YaHei', SimSun, serif; fill: #111; }
      .label { font: 22px 'Microsoft YaHei', SimSun, serif; fill: #111; }
      .text { font: 20px 'Microsoft YaHei', SimSun, serif; fill: #111; }
      .actor { stroke: #222; stroke-width: 2.8; fill: none; }
      .usecase { stroke: #222; stroke-width: 2.2; fill: #fff; }
      .line { stroke: #222; stroke-width: 2.2; fill: none; }
      .include { stroke: #222; stroke-width: 1.8; stroke-dasharray: 6 5; fill: none; }
    </style>
    <marker id="arrowSolidAdmin" markerWidth="10" markerHeight="10" refX="9" refY="5" orient="auto" markerUnits="strokeWidth">
      <path d="M0,0 L10,5 L0,10 z" fill="#222"/>
    </marker>
    <marker id="arrowDashedAdmin" markerWidth="10" markerHeight="10" refX="9" refY="5" orient="auto" markerUnits="strokeWidth">
      <path d="M0,0 L10,5 L0,10 z" fill="#222"/>
    </marker>
  </defs>

  <text x="650" y="48" text-anchor="middle" class="title">图2.2 管理员用例图</text>

  <circle cx="140" cy="430" r="16" class="actor"/>
  <line x1="140" y1="446" x2="140" y2="522" class="actor"/>
  <line x1="108" y1="472" x2="172" y2="472" class="actor"/>
  <line x1="140" y1="522" x2="116" y2="572" class="actor"/>
  <line x1="140" y1="522" x2="164" y2="572" class="actor"/>
  <text x="140" y="612" text-anchor="middle" class="label">管理员</text>

  <ellipse cx="420" cy="220" rx="110" ry="36" class="usecase"/>
  <text x="420" y="228" text-anchor="middle" class="text">后台登录</text>

  <ellipse cx="420" cy="340" rx="110" ry="36" class="usecase"/>
  <text x="420" y="348" text-anchor="middle" class="text">数据看板</text>

  <ellipse cx="420" cy="460" rx="110" ry="36" class="usecase"/>
  <text x="420" y="468" text-anchor="middle" class="text">商品管理</text>

  <ellipse cx="420" cy="580" rx="110" ry="36" class="usecase"/>
  <text x="420" y="588" text-anchor="middle" class="text">订单管理</text>

  <ellipse cx="420" cy="700" rx="110" ry="36" class="usecase"/>
  <text x="420" y="708" text-anchor="middle" class="text">会员管理</text>

  <ellipse cx="420" cy="820" rx="110" ry="36" class="usecase"/>
  <text x="420" y="828" text-anchor="middle" class="text">活动配置</text>

  <ellipse cx="900" cy="220" rx="120" ry="34" class="usecase"/>
  <text x="900" y="228" text-anchor="middle" class="text">轮播图管理</text>

  <ellipse cx="900" cy="340" rx="120" ry="34" class="usecase"/>
  <text x="900" y="348" text-anchor="middle" class="text">商品上下架</text>

  <ellipse cx="900" cy="460" rx="120" ry="34" class="usecase"/>
  <text x="900" y="468" text-anchor="middle" class="text">评论管理</text>

  <ellipse cx="900" cy="580" rx="120" ry="34" class="usecase"/>
  <text x="900" y="588" text-anchor="middle" class="text">订单处理</text>

  <ellipse cx="900" cy="700" rx="120" ry="34" class="usecase"/>
  <text x="900" y="708" text-anchor="middle" class="text">优惠券管理</text>

  <ellipse cx="900" cy="820" rx="120" ry="34" class="usecase"/>
  <text x="900" y="828" text-anchor="middle" class="text">拼团 / 秒杀设置</text>

  <line x1="158" y1="420" x2="310" y2="220" class="line" marker-end="url(#arrowSolidAdmin)"/>
  <line x1="170" y1="438" x2="310" y2="340" class="line" marker-end="url(#arrowSolidAdmin)"/>
  <line x1="172" y1="460" x2="310" y2="460" class="line" marker-end="url(#arrowSolidAdmin)"/>
  <line x1="170" y1="484" x2="310" y2="580" class="line" marker-end="url(#arrowSolidAdmin)"/>
  <line x1="160" y1="506" x2="310" y2="700" class="line" marker-end="url(#arrowSolidAdmin)"/>
  <line x1="148" y1="524" x2="310" y2="820" class="line" marker-end="url(#arrowSolidAdmin)"/>

  <line x1="530" y1="460" x2="780" y2="220" class="include" marker-end="url(#arrowDashedAdmin)"/>
  <text x="654" y="336" text-anchor="middle" class="text">&lt;&lt;包含&gt;&gt;</text>

  <line x1="530" y1="460" x2="780" y2="340" class="include" marker-end="url(#arrowDashedAdmin)"/>
  <text x="656" y="404" text-anchor="middle" class="text">&lt;&lt;包含&gt;&gt;</text>

  <line x1="530" y1="580" x2="780" y2="460" class="include" marker-end="url(#arrowDashedAdmin)"/>
  <text x="656" y="524" text-anchor="middle" class="text">&lt;&lt;包含&gt;&gt;</text>

  <line x1="530" y1="580" x2="780" y2="580" class="include" marker-end="url(#arrowDashedAdmin)"/>
  <text x="652" y="572" text-anchor="middle" class="text">&lt;&lt;包含&gt;&gt;</text>

  <line x1="530" y1="700" x2="780" y2="700" class="include" marker-end="url(#arrowDashedAdmin)"/>
  <text x="652" y="692" text-anchor="middle" class="text">&lt;&lt;包含&gt;&gt;</text>

  <line x1="530" y1="820" x2="780" y2="820" class="include" marker-end="url(#arrowDashedAdmin)"/>
  <text x="652" y="812" text-anchor="middle" class="text">&lt;&lt;包含&gt;&gt;</text>
</svg>
